<svg id="visual" viewBox="0 0 2200 1000" width="2200" height="1000" xmlns="http://www.w3.org/2000/svg" xmlns:xlink="http://www.w3.org/1999/xlink" version="1.1"><rect x="0" y="0" width="2200" height="1000" fill="#E9F3F4"></rect><path d="M0 679L52.3 670.5C104.7 662 209.3 645 314.2 642.5C419 640 524 652 628.8 670.2C733.7 688.3 838.3 712.7 943 710.3C1047.7 708 1152.3 679 1257 661.7C1361.7 644.3 1466.3 638.7 1571.2 653.2C1676 667.7 1781 702.3 1885.8 714.5C1990.7 726.7 2095.3 716.3 2147.7 711.2L2200 706L2200 1001L2147.7 1001C2095.3 1001 1990.7 1001 1885.8 1001C1781 1001 1676 1001 1571.2 1001C1466.3 1001 1361.7 1001 1257 1001C1152.3 1001 1047.7 1001 943 1001C838.3 1001 733.7 1001 628.8 1001C524 1001 419 1001 314.2 1001C209.3 1001 104.7 1001 52.3 1001L0 1001Z" fill="#2a8e9e"></path><path d="M0 790L52.3 782.2C104.7 774.3 209.3 758.7 314.2 752.8C419 747 524 751 628.8 737.3C733.7 723.7 838.3 692.3 943 691.7C1047.7 691 1152.3 721 1257 741.5C1361.7 762 1466.3 773 1571.2 769.3C1676 765.7 1781 747.3 1885.8 730.3C1990.7 713.3 2095.3 697.7 2147.7 689.8L2200 682L2200 1001L2147.7 1001C2095.3 1001 1990.7 1001 1885.8 1001C1781 1001 1676 1001 1571.2 1001C1466.3 1001 1361.7 1001 1257 1001C1152.3 1001 1047.7 1001 943 1001C838.3 1001 733.7 1001 628.8 1001C524 1001 419 1001 314.2 1001C209.3 1001 104.7 1001 52.3 1001L0 1001Z" fill="#316f82"></path><path d="M0 795L52.3 794.8C104.7 794.7 209.3 794.3 314.2 786.8C419 779.3 524 764.7 628.8 770.3C733.7 776 838.3 802 943 811.7C1047.7 821.3 1152.3 814.7 1257 817.3C1361.7 820 1466.3 832 1571.2 830.7C1676 829.3 1781 814.7 1885.8 808.5C1990.7 802.3 2095.3 804.7 2147.7 805.8L2200 807L2200 1001L2147.7 1001C2095.3 1001 1990.7 1001 1885.8 1001C1781 1001 1676 1001 1571.2 1001C1466.3 1001 1361.7 1001 1257 1001C1152.3 1001 1047.7 1001 943 1001C838.3 1001 733.7 1001 628.8 1001C524 1001 419 1001 314.2 1001C209.3 1001 104.7 1001 52.3 1001L0 1001Z" fill="#325162"></path><path d="M0 874L52.3 875.7C104.7 877.3 209.3 880.7 314.2 875C419 869.3 524 854.7 628.8 850.3C733.7 846 838.3 852 943 856.7C1047.7 861.3 1152.3 864.7 1257 870C1361.7 875.3 1466.3 882.7 1571.2 874C1676 865.3 1781 840.7 1885.8 832C1990.7 823.3 2095.3 830.7 2147.7 834.3L2200 838L2200 1001L2147.7 1001C2095.3 1001 1990.7 1001 1885.8 1001C1781 1001 1676 1001 1571.2 1001C1466.3 1001 1361.7 1001 1257 1001C1152.3 1001 1047.7 1001 943 1001C838.3 1001 733.7 1001 628.8 1001C524 1001 419 1001 314.2 1001C209.3 1001 104.7 1001 52.3 1001L0 1001Z" fill="#2b3640"></path><path d="M0 914L52.3 916.5C104.7 919 209.3 924 314.2 928C419 932 524 935 628.8 933.5C733.7 932 838.3 926 943 924.3C1047.7 922.7 1152.3 925.3 1257 920.3C1361.7 915.3 1466.3 902.7 1571.2 894.7C1676 886.7 1781 883.3 1885.8 887.3C1990.7 891.3 2095.3 902.7 2147.7 908.3L2200 914L2200 1001L2147.7 1001C2095.3 1001 1990.7 1001 1885.8 1001C1781 1001 1676 1001 1571.2 1001C1466.3 1001 1361.7 1001 1257 1001C1152.3 1001 1047.7 1001 943 1001C838.3 1001 733.7 1001 628.8 1001C524 1001 419 1001 314.2 1001C209.3 1001 104.7 1001 52.3 1001L0 1001Z" fill="#1d1e20"></path></svg>