<svg id="visual" viewBox="0 0 900 600" width="900" height="600" xmlns="http://www.w3.org/2000/svg" xmlns:xlink="http://www.w3.org/1999/xlink" version="1.1"><rect x="0" y="0" width="900" height="600" fill="#E9F3F4"></rect><path d="M725 600L720.8 585.7C716.7 571.3 708.3 542.7 700.8 514.2C693.3 485.7 686.7 457.3 699 428.8C711.3 400.3 742.7 371.7 748 343C753.3 314.3 732.7 285.7 708.8 257C685 228.3 658 199.7 638.5 171.2C619 142.7 607 114.3 599.8 85.8C592.7 57.3 590.3 28.7 589.2 14.3L588 0L900 0L900 14.3C900 28.7 900 57.3 900 85.8C900 114.3 900 142.7 900 171.2C900 199.7 900 228.3 900 257C900 285.7 900 314.3 900 343C900 371.7 900 400.3 900 428.8C900 457.3 900 485.7 900 514.2C900 542.7 900 571.3 900 585.7L900 600Z" fill="#2A8E9E" stroke-linecap="round" stroke-linejoin="miter"></path></svg>